<svg width="2026" height="838" xmlns="http://www.w3.org/2000/svg" xmlns:xlink="http://www.w3.org/1999/xlink" overflow="hidden"><defs><clipPath id="clip0"><rect x="973" y="871" width="2026" height="838"/></clipPath></defs><g clip-path="url(#clip0)" transform="translate(-973 -871)"><path d="M1115.09 1243.13 1013.65 1243.44 1013.65 1360.14 1014.42 1361.19 1104.15 1361.19C1117.54 1362.03 1129 1361.24 1138.55 1358.84 1143.75 1357.21 1148.39 1355.32 1152.45 1353.16 1156.51 1351.01 1160.14 1348.15 1163.34 1344.57 1166.53 1341 1169.1 1336.62 1171.05 1331.43 1173 1326.24 1173.98 1319.92 1173.98 1312.47 1173.98 1303.19 1173.1 1295.02 1171.33 1287.96 1169.57 1280.91 1167.32 1274.98 1164.6 1270.19 1161.88 1265.39 1158.77 1261.38 1155.28 1258.15 1151.79 1254.93 1148.58 1252.44 1145.64 1250.71 1136.26 1245.66 1126.08 1243.13 1115.09 1243.13ZM1978.54 1208.5C1994.84 1208.5 2008.05 1221.71 2008.05 1238 2008.05 1254.3 1994.84 1267.51 1978.54 1267.51 1962.24 1267.51 1949.02 1254.3 1949.02 1238 1949.02 1221.71 1962.24 1208.5 1978.54 1208.5ZM1013.65 1116.48 1013.65 1203.63 1104.56 1203.63C1113.72 1203.63 1121.79 1201.94 1128.77 1198.57 1131.76 1197.07 1134.65 1195.23 1137.44 1193.07 1140.24 1190.91 1142.79 1188.09 1145.09 1184.63 1147.4 1181.17 1149.28 1176.98 1150.74 1172.06 1152.2 1167.15 1152.93 1161.39 1152.93 1154.78 1152.93 1148.99 1151.99 1143.77 1150.11 1139.13 1148.23 1134.48 1145.17 1130.48 1140.95 1127.12 1136.73 1123.76 1130.68 1121.15 1122.8 1119.28 1114.92 1117.41 1105.19 1116.48 1093.6 1116.48ZM1104.81 1076.98C1109.42 1076.98 1113.27 1076.98 1116.36 1076.98 1126.22 1076.98 1135.76 1078.92 1144.97 1082.78 1154.18 1086.65 1162.52 1092.08 1169.98 1099.05 1177.45 1106.03 1183.42 1114.27 1187.89 1123.76 1192.36 1133.26 1194.6 1143.56 1194.6 1154.66 1194.6 1166.74 1192.74 1177.01 1189.03 1185.47 1185.32 1193.93 1181.32 1201.08 1177.02 1206.92 1171.75 1213.37 1166.66 1217.46 1161.73 1219.2 1170.55 1222.27 1179 1227.97 1187.07 1236.32 1194.16 1243.71 1200.63 1253.24 1206.46 1264.91 1212.3 1276.59 1215.21 1290.95 1215.21 1308 1215.21 1321.02 1213.81 1332.31 1211 1341.85 1208.19 1351.4 1204.38 1359.6 1199.59 1366.44 1194.79 1373.29 1189.4 1378.87 1183.42 1383.19 1177.43 1387.5 1170.7 1391.09 1163.21 1393.95 1150.17 1399.57 1134.44 1401.81 1116.02 1400.69L973 1400.69 973.277 1389.12 973.277 1243.56 973.02 1243.56 973.277 1232.71 973.277 1088.19 973.02 1077.84C1000.07 1077.84 1022.9 1077.7 1041.5 1077.41 1046.74 1077.41 1053.85 1077.41 1062.82 1077.41 1071.78 1077.41 1079.87 1077.34 1087.09 1077.2 1094.3 1077.05 1100.21 1076.98 1104.81 1076.98ZM1370.31 1076.98 1410.68 1076.98 1410.68 1361.19 1609.97 1361.19 1609.97 1396.82 1607.83 1398.97 1370.31 1401.12ZM2855.64 1075.77C2858.73 1075.77 2862.58 1075.77 2867.19 1075.77 2871.79 1075.77 2877.7 1075.84 2884.91 1075.98 2892.13 1076.13 2900.22 1076.2 2909.18 1076.2 2918.15 1076.2 2925.26 1076.2 2930.5 1076.2 2949.1 1076.48 2971.93 1076.63 2998.98 1076.63L2998.02 1115.27 2878.4 1115.27C2866.81 1115.27 2857.08 1116.2 2849.2 1118.07 2841.32 1119.94 2835.27 1122.55 2831.05 1125.91 2826.83 1129.26 2823.77 1133.27 2821.89 1137.91 2820.01 1142.56 2819.07 1147.78 2819.07 1153.57 2819.07 1160.17 2819.8 1165.93 2821.26 1170.85 2822.72 1175.76 2824.6 1179.95 2826.91 1183.42 2829.21 1186.88 2831.76 1189.69 2834.56 1191.86 2837.35 1194.02 2840.24 1195.85 2843.23 1197.36 2850.21 1200.73 2858.28 1202.42 2867.44 1202.42L2998.03 1202.42 2998.98 1242.34 2856.91 1241.92C2845.93 1241.92 2835.74 1244.45 2826.36 1249.49 2823.42 1251.23 2820.21 1253.71 2816.72 1256.94 2813.23 1260.17 2810.12 1264.18 2807.4 1268.97 2804.68 1273.77 2802.43 1279.69 2800.67 1286.75 2798.9 1293.8 2798.02 1301.97 2798.02 1311.26 2798.02 1318.71 2799 1325.03 2800.95 1330.22 2802.9 1335.41 2805.47 1339.79 2808.66 1343.36 2811.86 1346.93 2815.49 1349.8 2819.55 1351.95 2823.61 1354.1 2828.25 1356 2833.45 1357.62 2843 1360.03 2854.46 1360.81 2867.85 1359.98L2998.05 1359.98 2999 1399.47 2855.98 1399.47C2837.56 1400.6 2821.83 1398.35 2808.79 1392.74 2801.3 1389.88 2794.57 1386.29 2788.58 1381.97 2782.6 1377.66 2777.21 1372.08 2772.41 1365.23 2767.62 1358.38 2763.81 1350.19 2761 1340.64 2758.19 1331.1 2756.79 1319.81 2756.79 1306.79 2756.79 1289.74 2759.71 1275.37 2765.54 1263.7 2771.37 1252.02 2777.84 1242.49 2784.93 1235.11 2793 1226.76 2801.45 1221.05 2810.27 1217.99 2805.34 1216.25 2800.25 1212.15 2794.98 1205.71 2790.68 1199.87 2786.68 1192.72 2782.97 1184.26 2779.26 1175.8 2777.4 1165.53 2777.4 1153.45 2777.4 1142.34 2779.64 1132.04 2784.11 1122.55 2788.58 1113.06 2794.55 1104.82 2802.02 1097.84 2809.48 1090.86 2817.82 1085.44 2827.03 1081.57 2836.24 1077.7 2845.78 1075.77 2855.64 1075.77ZM2333.32 1075.77 2569.31 1075.77 2596.66 1075.77 2616.62 1075.77 2389.52 1359.55 2606.09 1359.55 2606.09 1399.47 2333.32 1399.47 2333.32 1370.83 2537.31 1115.77 2333.32 1115.77ZM1979.48 871C1979.34 881.343 1979.21 894.497 1979.08 907.651L1979.06 909.298 1978.58 926.869 1978.71 941.563 1978.67 944.302C1865.34 1158.47 1806.94 1315.29 1742.31 1526 1767.13 1378.74 1836 1092.6 1979.48 871ZM1979.48 871C2122.96 1092.6 2191.83 1378.74 2216.65 1526 2152.02 1315.29 2092.06 1158.47 1978.73 944.303L1978.71 941.563 1978.88 927.03 1979.06 909.298 1979.1 907.651C1979.53 894.642 1979.96 881.632 1979.48 871Z" fill-rule="evenodd"/><path d="M1701.38 1656.52 1701.38 1689.43 1726.36 1689.43C1733.08 1689.43 1738.08 1688.03 1741.36 1685.23 1744.63 1682.42 1746.27 1678.46 1746.27 1673.34L1746.27 1673.1C1746.27 1669.65 1745.63 1666.68 1744.34 1664.2 1743.05 1661.72 1741.06 1659.82 1738.37 1658.5 1735.69 1657.18 1732.36 1656.52 1728.38 1656.52ZM2499 1620.21 2482.87 1666.95 2515.17 1666.95ZM1412.53 1608.65 1412.53 1640.75 1441.62 1640.75C1444.31 1640.75 1446.69 1640.09 1448.76 1638.77 1450.83 1637.45 1452.42 1635.56 1453.55 1633.11 1454.68 1630.66 1455.27 1627.84 1455.33 1624.66 1455.33 1621.48 1454.76 1618.68 1453.63 1616.25 1452.51 1613.83 1450.91 1611.95 1448.84 1610.63 1446.77 1609.31 1444.36 1608.65 1441.62 1608.65ZM1701.38 1608.49 1701.38 1638.41 1728.38 1638.41C1733.7 1638.41 1737.76 1637.11 1740.55 1634.53 1743.34 1631.94 1744.74 1628.19 1744.74 1623.29 1744.74 1618.43 1743.26 1614.75 1740.31 1612.25 1737.35 1609.74 1733 1608.49 1727.25 1608.49ZM1143.99 1608.16C1139.58 1608.16 1135.72 1609.14 1132.38 1611.08 1129.05 1613.02 1126.47 1615.78 1124.65 1619.36 1122.82 1622.95 1121.91 1627.09 1121.91 1631.78L1121.91 1666.22C1121.91 1670.91 1122.82 1675.04 1124.65 1678.6 1126.47 1682.15 1129.05 1684.9 1132.38 1686.84 1135.72 1688.78 1139.58 1689.75 1143.99 1689.75 1148.4 1689.75 1152.28 1688.78 1155.64 1686.84 1158.99 1684.9 1161.59 1682.15 1163.41 1678.6 1165.24 1675.04 1166.15 1670.91 1166.15 1666.22L1166.15 1631.78C1166.15 1627.09 1165.24 1622.95 1163.41 1619.36 1161.59 1615.78 1158.99 1613.02 1155.64 1611.08 1152.28 1609.14 1148.4 1608.16 1143.99 1608.16ZM2748.11 1590.21 2767.38 1590.21 2767.38 1689.27 2825 1689.27 2825 1707.79 2767.38 1707.79 2757.14 1707.79 2748.11 1707.79ZM2491.98 1590.21 2506.01 1590.21 2550.01 1707.79 2529.3 1707.79 2521.58 1685.47 2476.48 1685.47 2468.77 1707.79 2447.98 1707.79ZM2181.8 1590.21 2266.1 1590.21 2266.1 1608.73 2233.63 1608.73 2233.63 1707.79 2214.36 1707.79 2214.36 1608.73 2181.8 1608.73ZM1970.16 1590.21 1989.83 1590.21 1989.83 1707.79 1970.16 1707.79ZM1682.12 1590.21 1691.79 1590.21 1701.38 1590.21 1729.1 1590.21C1736.68 1590.21 1743.09 1591.48 1748.33 1594.01 1753.57 1596.55 1757.51 1600.2 1760.17 1604.97 1762.83 1609.74 1764.16 1615.44 1764.16 1622.07 1764.16 1626.39 1763.33 1630.31 1761.66 1633.84 1760 1637.37 1757.5 1640.32 1754.17 1642.69 1750.84 1645.06 1746.78 1646.68 1742 1647.54 1746.94 1648.25 1751.2 1649.88 1754.77 1652.44 1758.35 1655 1761.06 1658.26 1762.91 1662.22 1764.77 1666.18 1765.69 1670.62 1765.69 1675.52L1765.69 1675.77C1765.69 1682.29 1764.3 1687.96 1761.5 1692.79 1758.71 1697.61 1754.65 1701.32 1749.33 1703.91 1744.01 1706.49 1737.73 1707.79 1730.48 1707.79L1701.38 1707.79 1691.79 1707.79 1682.12 1707.79ZM1393.27 1590.13 1401.25 1590.13 1412.53 1590.13 1442.19 1590.13C1448.8 1590.13 1454.61 1591.56 1459.64 1594.42 1464.66 1597.28 1468.54 1601.32 1471.28 1606.55 1474.02 1611.78 1475.39 1617.81 1475.39 1624.66 1475.39 1631.56 1474.01 1637.63 1471.24 1642.85 1468.48 1648.08 1464.58 1652.13 1459.56 1654.98L1452.71 1657.7 1480.31 1707.79 1457.18 1707.79 1431.46 1659.27 1412.53 1659.27 1412.53 1707.79 1393.27 1707.79ZM1143.99 1589C1152.32 1589 1159.67 1590.79 1166.03 1594.38 1172.4 1597.96 1177.32 1603.03 1180.78 1609.58 1184.25 1616.13 1185.98 1623.72 1185.98 1632.34L1185.98 1665.66C1185.98 1674.28 1184.25 1681.87 1180.78 1688.42 1177.32 1694.97 1172.4 1700.04 1166.03 1703.62 1159.67 1707.21 1152.32 1709 1143.99 1709 1135.66 1709 1128.33 1707.21 1121.99 1703.62 1115.65 1700.04 1110.73 1694.97 1107.24 1688.42 1103.75 1681.87 1102 1674.28 1102 1665.66L1102 1632.34C1102 1623.72 1103.75 1616.13 1107.24 1609.58 1110.73 1603.03 1115.65 1597.96 1121.99 1594.38 1128.33 1590.79 1135.66 1589 1143.99 1589Z" fill-rule="evenodd"/></g></svg>