<svg width="2027" height="656" xmlns="http://www.w3.org/2000/svg" xmlns:xlink="http://www.w3.org/1999/xlink" overflow="hidden"><defs><clipPath id="clip0"><rect x="1245" y="856" width="2027" height="656"/></clipPath></defs><g clip-path="url(#clip0)" transform="translate(-1245 -856)"><path d="M1387.16 1228.7 1285.67 1229.01 1285.67 1345.89 1286.44 1346.94 1376.22 1346.94C1389.61 1347.78 1401.08 1346.99 1410.63 1344.58 1415.84 1342.95 1420.48 1341.06 1424.54 1338.9 1428.6 1336.74 1432.23 1333.88 1435.43 1330.3 1438.63 1326.72 1441.2 1322.33 1443.15 1317.13 1445.1 1311.94 1446.08 1305.61 1446.08 1298.14 1446.08 1288.85 1445.2 1280.66 1443.43 1273.6 1441.66 1266.53 1439.42 1260.6 1436.7 1255.8 1433.97 1251 1430.86 1246.98 1427.37 1243.75 1423.88 1240.51 1420.67 1238.03 1417.72 1236.29 1408.34 1231.23 1398.15 1228.7 1387.16 1228.7ZM2251.03 1194.02C2267.34 1194.02 2280.57 1207.24 2280.57 1223.56 2280.57 1239.88 2267.34 1253.11 2251.03 1253.11 2234.72 1253.11 2221.5 1239.88 2221.5 1223.56 2221.5 1207.24 2234.72 1194.02 2251.03 1194.02ZM1285.67 1101.85 1285.67 1189.14 1376.63 1189.14C1385.79 1189.14 1393.87 1187.45 1400.85 1184.07 1403.84 1182.56 1406.73 1180.73 1409.52 1178.56 1412.32 1176.39 1414.87 1173.58 1417.18 1170.11 1419.48 1166.64 1421.37 1162.44 1422.83 1157.52 1424.29 1152.6 1425.02 1146.83 1425.02 1140.21 1425.02 1134.41 1424.08 1129.19 1422.2 1124.53 1420.31 1119.88 1417.26 1115.87 1413.04 1112.51 1408.81 1109.15 1402.76 1106.53 1394.88 1104.66 1386.99 1102.79 1377.26 1101.85 1365.66 1101.85ZM1376.88 1062.3C1381.49 1062.3 1385.34 1062.3 1388.43 1062.3 1398.3 1062.3 1407.84 1064.23 1417.06 1068.11 1426.27 1071.98 1434.61 1077.41 1442.08 1084.4 1449.55 1091.39 1455.52 1099.64 1459.99 1109.15 1464.47 1118.66 1466.71 1128.97 1466.71 1140.09 1466.71 1152.19 1464.85 1162.48 1461.14 1170.95 1457.43 1179.43 1453.42 1186.59 1449.12 1192.44 1443.85 1198.89 1438.75 1202.99 1433.83 1204.73 1442.65 1207.8 1451.1 1213.52 1459.17 1221.88 1466.27 1229.28 1472.74 1238.82 1478.58 1250.51 1484.41 1262.21 1487.33 1276.59 1487.33 1293.67 1487.33 1306.71 1485.93 1318.01 1483.12 1327.57 1480.3 1337.13 1476.5 1345.34 1471.7 1352.2 1466.9 1359.06 1461.5 1364.65 1455.52 1368.97 1449.53 1373.29 1442.8 1376.89 1435.3 1379.75 1422.26 1385.37 1406.52 1387.62 1388.09 1386.5L1245 1386.5 1245.28 1374.91 1245.28 1229.13 1245.02 1229.13 1245.28 1218.26 1245.28 1073.52 1245.02 1063.16C1272.09 1063.16 1294.93 1063.01 1313.53 1062.73 1318.78 1062.73 1325.89 1062.73 1334.86 1062.73 1343.83 1062.73 1351.93 1062.65 1359.14 1062.51 1366.36 1062.37 1372.27 1062.3 1376.88 1062.3ZM1642.51 1062.3 1682.9 1062.3 1682.9 1346.94 1882.29 1346.94 1882.29 1382.63 1880.14 1384.78 1642.51 1386.93ZM3128.57 1061.08C3131.66 1061.08 3135.51 1061.08 3140.12 1061.08 3144.73 1061.08 3150.64 1061.15 3157.86 1061.3 3165.07 1061.44 3173.17 1061.51 3182.14 1061.51 3191.11 1061.51 3198.22 1061.51 3203.47 1061.51 3222.08 1061.8 3244.91 1061.94 3271.98 1061.94L3271.02 1100.64 3151.34 1100.64C3139.74 1100.64 3130.01 1101.57 3122.12 1103.45 3114.24 1105.32 3108.19 1107.94 3103.97 1111.3 3099.74 1114.66 3096.69 1118.67 3094.8 1123.32 3092.92 1127.97 3091.98 1133.2 3091.98 1139 3091.98 1145.62 3092.71 1151.38 3094.17 1156.31 3095.63 1161.23 3097.52 1165.42 3099.82 1168.89 3102.13 1172.36 3104.68 1175.18 3107.48 1177.35 3110.27 1179.51 3113.17 1181.35 3116.16 1182.86 3123.13 1186.23 3131.21 1187.92 3140.37 1187.92L3271.03 1187.92 3271.98 1227.91 3129.84 1227.49C3118.85 1227.49 3108.66 1230.02 3099.28 1235.07 3096.33 1236.81 3093.12 1239.3 3089.63 1242.53 3086.14 1245.76 3083.03 1249.78 3080.3 1254.58 3077.58 1259.38 3075.34 1265.32 3073.57 1272.38 3071.8 1279.45 3070.92 1287.63 3070.92 1296.93 3070.92 1304.39 3071.9 1310.72 3073.85 1315.92 3075.8 1321.12 3078.37 1325.5 3081.57 1329.08 3084.77 1332.66 3088.4 1335.53 3092.46 1337.69 3096.52 1339.84 3101.16 1341.74 3106.37 1343.37 3115.92 1345.78 3127.39 1346.56 3140.78 1345.72L3271.05 1345.72 3272 1385.28 3128.91 1385.28C3110.48 1386.41 3094.74 1384.16 3081.7 1378.54 3074.2 1375.67 3067.47 1372.08 3061.48 1367.75 3055.5 1363.43 3050.1 1357.84 3045.3 1350.98 3040.5 1344.13 3036.7 1335.92 3033.89 1326.36 3031.07 1316.8 3029.67 1305.5 3029.67 1292.45 3029.67 1275.38 3032.59 1260.99 3038.42 1249.3 3044.26 1237.61 3050.73 1228.06 3057.83 1220.66 3065.9 1212.3 3074.35 1206.59 3083.17 1203.52 3078.25 1201.77 3073.15 1197.68 3067.88 1191.22 3063.58 1185.37 3059.57 1178.21 3055.86 1169.74 3052.15 1161.26 3050.29 1150.98 3050.29 1138.88 3050.29 1127.76 3052.53 1117.44 3057.01 1107.93 3061.48 1098.43 3067.45 1090.18 3074.92 1083.19 3082.39 1076.2 3090.73 1070.77 3099.94 1066.89 3109.16 1063.02 3118.7 1061.08 3128.57 1061.08ZM2605.99 1061.08 2842.09 1061.08 2869.46 1061.08 2889.43 1061.08 2662.22 1345.29 2878.9 1345.29 2878.9 1385.28 2605.99 1385.28 2605.99 1356.59 2810.08 1101.14 2605.99 1101.14ZM2251.98 856C2251.84 866.359 2251.71 879.533 2251.57 892.707L2251.56 894.357 2251.07 911.954 2251.2 926.67 2251.17 929.414C2137.78 1143.91 2079.35 1300.97 2014.69 1512 2039.52 1364.52 2108.42 1077.94 2251.98 856ZM2251.98 856C2395.53 1077.94 2464.43 1364.52 2489.26 1512 2424.6 1300.97 2364.61 1143.91 2251.23 929.415L2251.2 926.67 2251.37 912.116 2251.56 894.357 2251.6 892.707C2252.03 879.678 2252.46 866.648 2251.98 856Z" fill-rule="evenodd"/></g></svg>